<mxfile host="app.diagrams.net" modified="2022-04-26T12:32:49.170Z" agent="5.0 (Windows NT 10.0; Win64; x64) AppleWebKit/537.36 (KHTML, like Gecko) Chrome/100.0.4896.127 Safari/537.36 Edg/100.0.1185.50" etag="LYjQGhZt20hJeJmrBE7H" version="17.4.6" type="github">
  <diagram id="8ieHvSDkhuZHFwTLmC-z" name="Page-1">
    <mxGraphModel dx="1038" dy="579" grid="1" gridSize="10" guides="1" tooltips="1" connect="1" arrows="1" fold="1" page="1" pageScale="1" pageWidth="850" pageHeight="1100" math="0" shadow="0">
      <root>
        <mxCell id="0" />
        <mxCell id="1" parent="0" />
        <mxCell id="btQQ7ic_pZ-7D7an7gx4-3" value="" style="edgeStyle=orthogonalEdgeStyle;rounded=0;orthogonalLoop=1;jettySize=auto;html=1;" edge="1" parent="1" source="btQQ7ic_pZ-7D7an7gx4-1" target="btQQ7ic_pZ-7D7an7gx4-2">
          <mxGeometry relative="1" as="geometry" />
        </mxCell>
        <mxCell id="btQQ7ic_pZ-7D7an7gx4-1" value="start" style="rounded=1;whiteSpace=wrap;html=1;" vertex="1" parent="1">
          <mxGeometry x="360" y="40" width="100" height="30" as="geometry" />
        </mxCell>
        <mxCell id="btQQ7ic_pZ-7D7an7gx4-5" value="" style="edgeStyle=orthogonalEdgeStyle;rounded=0;orthogonalLoop=1;jettySize=auto;html=1;" edge="1" parent="1" source="btQQ7ic_pZ-7D7an7gx4-2" target="btQQ7ic_pZ-7D7an7gx4-4">
          <mxGeometry relative="1" as="geometry" />
        </mxCell>
        <mxCell id="btQQ7ic_pZ-7D7an7gx4-2" value="return the total agent count" style="whiteSpace=wrap;html=1;rounded=1;" vertex="1" parent="1">
          <mxGeometry x="350" y="135" width="120" height="60" as="geometry" />
        </mxCell>
        <mxCell id="btQQ7ic_pZ-7D7an7gx4-4" value="end" style="ellipse;whiteSpace=wrap;html=1;rounded=1;" vertex="1" parent="1">
          <mxGeometry x="350" y="220" width="120" height="30" as="geometry" />
        </mxCell>
      </root>
    </mxGraphModel>
  </diagram>
</mxfile>
